<?xml version="1.0" standalone="no"?>
<!DOCTYPE svg PUBLIC "-//W3C//DTD SVG 20010904//EN"
 "http://www.w3.org/TR/2001/REC-SVG-20010904/DTD/svg10.dtd">
<svg version="1.0" xmlns="http://www.w3.org/2000/svg"
 width="1200.000000pt" height="1200.000000pt" viewBox="0 0 1200.000000 1200.000000"
 preserveAspectRatio="xMidYMid meet">
<metadata>
Created by potrace 1.11, written by Peter Selinger 2001-2013
</metadata>
<g transform="translate(0.000000,1200.000000) scale(0.100000,-0.100000)"
fill="#000000" stroke="none">
<path d="M5355 11984 c-19 -6 -52 -24 -73 -39 -41 -31 -304 -293 -366 -365
-38 -45 -198 -218 -314 -339 l-63 -66 6 -68 c4 -37 8 -77 10 -89 3 -12 7 -44
10 -72 5 -51 22 -175 31 -231 2 -16 6 -51 9 -77 2 -25 6 -59 9 -75 7 -46 15
-104 22 -162 3 -30 7 -61 9 -70 1 -9 8 -64 15 -122 l13 -107 -30 -43 c-66 -96
-78 -134 -75 -239 2 -116 32 -204 108 -321 38 -59 84 -149 104 -204 4 -11 12
-32 18 -47 7 -17 11 -151 12 -371 l0 -344 -55 -29 c-30 -16 -55 -32 -55 -36 0
-5 -5 -8 -10 -8 -6 0 -36 -16 -66 -35 -30 -19 -57 -35 -60 -35 -12 0 -77 -63
-267 -257 -89 -92 -106 -103 -192 -119 -210 -40 -645 -157 -900 -244 -82 -28
-163 -57 -180 -64 -16 -7 -61 -26 -100 -41 -38 -16 -74 -32 -79 -37 -6 -4 -17
-8 -26 -8 -17 0 -107 89 -170 169 -19 24 -39 48 -45 55 -15 17 -69 89 -80 107
-5 9 -30 47 -55 85 -25 38 -50 78 -55 89 -22 41 -59 49 -250 49 -204 0 -388
-12 -610 -39 -84 -11 -140 -19 -270 -40 -55 -9 -113 -19 -130 -21 -16 -3 -48
-10 -70 -16 -22 -5 -51 -12 -65 -15 -77 -13 -255 -74 -282 -96 -9 -7 -55 -68
-103 -137 -49 -69 -97 -135 -108 -147 -11 -13 -19 -25 -16 -27 4 -4 94 -32
317 -98 l113 -34 147 72 c151 75 341 164 348 164 2 0 32 13 66 29 165 75 411
161 538 187 45 9 105 14 139 11 52 -4 65 -9 108 -45 27 -23 66 -63 88 -88 22
-26 45 -52 51 -58 10 -10 163 -228 177 -253 4 -7 -15 -26 -51 -49 -100 -65
-180 -136 -230 -201 -12 -15 -36 -46 -53 -68 -44 -56 -129 -172 -164 -224 -17
-25 -47 -57 -68 -72 -39 -28 -159 -72 -297 -108 -361 -94 -570 -197 -815 -400
-172 -143 -275 -274 -463 -586 -109 -182 -162 -294 -212 -445 -43 -131 -51
-178 -54 -305 -3 -153 31 -268 116 -398 21 -32 38 -62 38 -67 0 -5 3 -10 8
-12 4 -1 31 -39 61 -83 107 -159 222 -290 331 -378 46 -37 163 -93 220 -104
108 -22 244 6 355 72 32 20 102 69 155 109 52 40 127 94 165 119 39 26 78 54
89 62 10 7 73 41 140 75 177 88 303 115 411 86 11 -3 36 -10 55 -15 56 -15
157 -40 187 -46 15 -3 75 -16 132 -29 l105 -24 88 36 c48 20 89 34 91 31 2 -2
22 -42 46 -89 24 -47 90 -164 148 -260 57 -96 110 -184 116 -195 7 -11 14 -22
17 -25 5 -5 92 -132 122 -179 9 -14 22 -31 27 -38 6 -7 21 -27 34 -45 12 -18
76 -105 141 -193 140 -187 211 -290 247 -360 26 -48 72 -174 83 -225 32 -147
32 -147 41 -200 18 -119 28 -225 29 -317 1 -40 3 -73 6 -73 7 0 4 -337 -4
-460 -3 -52 -14 -120 -24 -150 -10 -30 -55 -163 -100 -295 -45 -132 -123 -359
-172 -505 -50 -146 -93 -269 -94 -275 -2 -5 -6 -17 -9 -25 -9 -23 -169 -499
-183 -547 l-13 -43 67 5 c37 2 105 7 152 10 47 3 108 8 135 10 28 3 88 7 135
10 47 2 112 7 145 10 80 7 170 13 280 20 50 3 117 8 150 11 33 2 92 6 130 9
173 11 243 16 290 20 28 3 91 7 140 10 50 3 113 8 140 10 55 5 198 15 290 20
33 2 96 7 140 10 128 10 174 13 275 20 52 3 118 8 145 10 87 6 225 16 293 20
37 3 101 7 142 10 41 4 104 8 140 10 36 2 99 7 140 10 41 3 102 8 135 10 140
10 224 16 285 20 36 3 99 8 140 10 41 3 104 7 140 10 36 3 99 7 140 10 41 2
110 7 153 10 83 7 160 12 272 20 39 2 99 6 135 9 36 3 103 8 150 11 150 10
224 16 227 19 3 2 -18 69 -156 501 -27 83 -70 218 -96 300 -26 83 -55 175 -65
205 -10 30 -42 129 -70 220 -28 91 -56 176 -61 190 -10 22 -13 449 -4 590 3
58 13 197 20 290 5 68 32 247 46 309 15 62 60 205 68 211 8 7 35 57 188 350
128 244 395 783 453 915 27 62 86 118 115 109 17 -5 164 -65 265 -107 14 -6
30 -11 35 -11 8 -1 170 31 245 49 68 16 127 31 200 51 61 17 104 23 151 20 64
-3 211 -42 217 -58 2 -4 10 -8 17 -8 18 0 134 -63 235 -128 79 -51 219 -149
230 -162 3 -3 27 -22 55 -41 27 -18 55 -39 62 -46 20 -18 134 -70 183 -83 138
-37 284 -5 416 93 121 89 240 230 399 472 142 217 159 266 159 460 0 72 -3
144 -6 160 -22 94 -31 127 -55 195 -65 188 -280 560 -442 765 -184 233 -480
443 -766 545 -49 17 -97 33 -105 36 -8 2 -45 12 -82 21 -72 19 -80 26 -49 43
11 5 25 16 33 23 7 7 47 37 88 67 41 30 80 59 86 65 7 5 35 28 64 50 84 65
323 259 490 398 l155 129 33 92 c19 50 40 107 47 126 8 19 48 134 90 255 42
121 83 236 90 255 44 111 174 494 170 498 -2 3 -10 0 -17 -5 -54 -43 -384
-206 -473 -234 -58 -18 -190 -156 -336 -352 -66 -89 -127 -170 -135 -180 -8
-9 -14 -20 -14 -23 0 -3 -19 -33 -43 -67 -49 -70 -196 -307 -219 -352 -8 -16
-32 -63 -52 -102 -20 -40 -37 -75 -37 -78 0 -2 -6 -23 -14 -45 -8 -22 -12 -40
-10 -40 2 0 -5 -33 -16 -72 -18 -63 -47 -117 -84 -153 -32 -32 -225 -145 -247
-145 -9 0 -28 19 -43 43 -27 40 -154 212 -185 250 -81 99 -150 164 -178 170
-15 4 -44 22 -65 42 -84 77 -232 159 -437 240 -52 20 -103 41 -112 46 -83 43
-539 171 -688 193 -19 3 -44 7 -55 10 -11 2 -42 7 -70 10 -27 4 -58 9 -67 12
-9 3 -32 7 -50 9 -29 3 -133 21 -333 57 -33 5 -69 12 -80 13 -60 10 -212 37
-225 41 -8 2 -31 19 -50 37 -19 17 -67 59 -105 92 -39 33 -72 62 -75 65 -3 3
-36 32 -75 65 -38 33 -76 67 -85 75 -43 40 -144 125 -151 128 -4 2 -9 -9 -12
-25 -2 -15 -5 28 -6 97 -3 133 -6 257 -16 596 l-6 211 40 74 c52 97 87 190
117 317 34 138 27 185 -36 277 -37 54 -38 76 -14 240 9 66 12 85 28 220 5 38
16 111 22 150 3 17 7 46 9 65 2 19 6 46 9 60 3 14 15 81 26 150 12 69 25 143
30 165 5 22 11 54 14 71 8 46 55 203 68 228 15 28 163 166 320 298 48 40 87
75 87 78 1 3 -81 -15 -181 -41 -101 -26 -187 -48 -193 -49 -27 -6 -26 2 1 23
17 12 62 50 101 85 39 35 79 70 89 78 17 13 11 14 -61 9 -44 -3 -89 -7 -100
-9 -23 -4 -208 -20 -215 -19 -3 1 -50 4 -105 8 -55 4 -116 9 -135 11 -19 2
-66 6 -105 9 -38 3 -90 7 -115 10 -45 5 -99 10 -215 21 -33 3 -78 7 -100 9
-22 3 -67 7 -100 10 -77 6 -166 14 -230 20 -241 21 -444 25 -490 9z m1472
-3841 c7 -10 18 -27 25 -38 l11 -20 -24 20 c-27 23 -39 37 -39 48 0 12 12 8
27 -10z m-1092 -5588 c82 -82 199 -215 189 -215 -3 0 -25 19 -48 43 -24 23
-91 87 -151 142 -59 55 -130 122 -159 148 -28 27 -70 67 -93 88 -24 22 -43 42
-43 45 0 9 254 -200 305 -251z"/>
</g>
</svg>
