<?xml version="1.0" encoding="UTF-8"?><!DOCTYPE svg PUBLIC "-//W3C//DTD SVG 1.1//EN" "http://www.w3.org/Graphics/SVG/1.1/DTD/svg11.dtd"><svg xmlns="http://www.w3.org/2000/svg"><symbol id="motivation_logo" viewBox="0 0 1028 904.3"><path d="M399.4 333.3h-32.2c-11.1-99-.8-214.8 57.7-333.3 19.2 22.7 36.8 43.5 46.9 65.9-56.3 87.3-73.9 181.4-72.4 267.4zm82.2 316.1c-.5-.8-11.7-16.1-26.9-44.1h5.9c11.8 27 20.6 43.3 21 44.1zm60.3-44.1h8.8c-12.1 26-20.4 43.1-20.9 44.1.3-.9 5.4-17.1 12.1-44.1zm105.7-272h-74.8c-.9-62-7.9-129.2-25.2-196.2 0 0 94.3 100.3 101.8 143.7 2.6 14 1.6 32.5-1.8 52.5zM497.9 672.1s-43.7 72.2-131.7 136.2v21.3l175-98.3-43.3-59.2zm72.3 232.2c-5.8 0-10.5-4.7-10.5-10.5V751.3c0-5.8 4.7-10.5 10.5-10.5s10.5 4.7 10.5 10.5v142.5c0 5.8-4.8 10.5-10.5 10.5zM691 758.6l-168-86.5 31.8 51.8 148 55.9m-65.6 124.5c-5 0-9.1-4.1-9.1-9.1V776.9c0-5 4.1-9.1 9.1-9.1s9.1 4.1 9.1 9.1v118.2c0 5.1-4.1 9.2-9.1 9.2zm-32.3 0c-5.9 0-10.7-4.8-10.7-10.7v-128c0-5.9 4.8-10.7 10.7-10.7 5.9 0 10.7 4.8 10.7 10.7v128c-.1 5.9-4.9 10.7-10.7 10.7zm61.8 0c-4.6 0-8.3-3.8-8.3-8.3V787.3c0-4.6 3.8-8.3 8.3-8.3 4.6 0 8.3 3.8 8.3 8.3V896c0 4.6-3.8 8.3-8.3 8.3zm25.6 0c-4.6 0-8.3-3.8-8.3-8.3v-97.3c0-4.6 3.8-8.3 8.3-8.3 4.6 0 8.3 3.8 8.3 8.3V896c.1 4.6-3.7 8.3-8.3 8.3zM85.1 455.8c4.3 2.4 7.6 6.2 9.7 11.6 2.1 5.4 3.2 17.9 3.2 37.7 0 14.7-1 26-3.1 34.1s-5.7 14.2-10.8 18.5-11.6 6.3-19.6 6.3c-9.1 0-16.2-2.4-21.3-7.3-5.2-4.9-8.6-10.9-10.2-18-1.6-7.1-2.4-19.4-2.4-37v-14.6h28.6v30c0 8 .3 13 .9 15.2.6 2.2 1.9 3.2 3.9 3.2 2.2 0 3.7-1.4 4.4-4.1.7-2.7 1.1-9.9 1.1-21.4v-12.8c0-7.1-.5-12.2-1.5-15.5s-2.5-5.4-4.4-6.4-5.7-1.6-11.3-1.8v-26.8c6.8 0 11-.4 12.6-1.3 1.6-.8 2.8-2.7 3.5-5.5s1.1-7.2 1.1-13.2v-10.3c0-6.5-.4-10.7-1.2-12.8-.8-2-2.1-3.1-3.9-3.1-2 0-3.3 1.1-4.1 3.2-.7 2.2-1.1 6.8-1.1 13.8v15.1H30.6v-15.3c0-17.6 2.5-29.5 7.5-35.7s13-9.3 23.9-9.3c13.6 0 22.9 4.3 27.8 12.9 4.9 8.6 7.3 20.5 7.3 35.7 0 10.3-.9 17.8-2.6 22.4-2 4.5-5 8.7-9.4 12.5zm92.1 28.1c0 18.5-.3 31.6-.8 39.3s-2.2 14.7-5.1 21.1c-2.9 6.4-6.7 11.3-11.6 14.7s-10.5 5.1-17 5.1c-6.1 0-11.6-1.6-16.5-4.8-4.9-3.2-8.8-8.1-11.8-14.5-3-6.5-4.7-13.5-5.3-21.1s-.8-20.9-.8-39.9v-31.5c0-18.5.3-31.6.8-39.3s2.2-14.7 5.1-21.1c2.9-6.4 6.7-11.3 11.6-14.7 4.9-3.4 10.5-5.1 17-5.1 6.1 0 11.6 1.6 16.5 4.8 4.9 3.2 8.8 8.1 11.8 14.5 3 6.5 4.7 13.5 5.3 21.1.6 7.6.8 20.9.8 39.9v31.5zm-29.8-60.6c0-8.6-.3-14.1-.9-16.5s-1.8-3.6-3.6-3.6c-1.6 0-2.8 1-3.6 2.9-.8 1.9-1.2 7.6-1.2 17.1v86.1c0 10.7.3 17.3.8 19.8s1.8 3.8 3.8 3.8 3.3-1.4 3.9-4.3c.6-2.9.8-9.8.8-20.6v-84.7zm109.4-47.4v184.4H227v-77.4h-8.9v77.4h-29.8V375.9h29.8v65.9h8.9v-65.9h29.8zm63.5 0l17 184.4h-30.5l-1.6-33.1h-10.7l-1.8 33.1h-30.8l15.3-184.4h43.1zm-15.8 118.6c-1.5-20.9-3-46.7-4.5-77.4-3 35.3-4.9 61.1-5.7 77.4h10.2zm104.2-4.9c-2.4 4.1-5.5 7.4-9.4 9.9s-7.8 3.7-11.8 3.7c-7.1 0-12.3-3.2-15.5-9.6-3.2-6.4-4.9-16.2-4.9-29.6v-88.1H397v83c0 7.2.4 12.2 1.2 14.9s2.1 4 3.9 4c4.4 0 6.7-6.1 6.7-18.4v-83.5h29.9v184.4h-29.9v-70.7h-.1zm41.8-113.7h49.7v36.9h-19.9v35h18.6v35.1h-18.6v40.5h21.9v36.9h-51.7V375.9zm152.2 0v184.4h-26.1V435.8l-10.4 124.5h-18.5l-10.9-121.6v121.6h-26.1V375.9h38.6c1.1 11.1 2.3 24.2 3.5 39.2L557 462l6.8-86.1h38.9zm80.6 184.4h-29.9V412.7h-8.9v147.6h-29.9V375.8h68.6v184.5h.1zm78.4 0h-24.9v-83.9l-15.5 83.9h-26.1V375.8h24.9v83.3l16.7-83.3h24.9v184.5zm80-76.4c0 18.5-.3 31.6-.8 39.3s-2.2 14.7-5.1 21.1c-2.9 6.4-6.7 11.3-11.6 14.7-4.9 3.4-10.5 5.1-17 5.1-6.1 0-11.6-1.6-16.5-4.8s-8.8-8.1-11.8-14.5c-3-6.5-4.7-13.5-5.3-21.1s-.8-20.9-.8-39.9v-31.5c0-18.5.3-31.6.8-39.3s2.2-14.7 5.1-21.1c2.9-6.4 6.7-11.3 11.6-14.7 4.9-3.4 10.5-5.1 17-5.1 6.1 0 11.6 1.6 16.5 4.8 4.9 3.2 8.8 8.1 11.8 14.5 3 6.5 4.7 13.5 5.3 21.1s.8 20.9.8 39.9v31.5zm-29.8-60.6c0-8.6-.3-14.1-.9-16.5-.6-2.4-1.8-3.6-3.6-3.6-1.6 0-2.8 1-3.6 2.9s-1.2 7.6-1.2 17.1v86.1c0 10.7.3 17.3.8 19.8s1.8 3.8 3.8 3.8 3.3-1.4 3.9-4.3c.6-2.9.8-9.8.8-20.6v-84.7zm109.5-47.4v184.4h-29.8v-77.4h-8.9v77.4h-29.8V375.9h29.8v65.9h8.9v-65.9h29.8zm63.5 0l17 184.4h-30.5l-1.6-33.1h-10.6l-1.8 33.1h-30.8l15.2-184.4h43.1zm-15.8 118.6c-1.5-20.9-3-46.7-4.5-77.4-3 35.3-4.9 61.1-5.7 77.4h10.2z"/><circle cx="683" cy="350.1" r="7.1"/><circle cx="663.1" cy="350.1" r="7.1"/><circle cx="643.2" cy="350.1" r="7.1"/><circle cx="623.4" cy="350.1" r="7.1"/><circle cx="603.5" cy="350.1" r="7.1"/><circle cx="583.6" cy="350.1" r="7.1"/><circle cx="563.7" cy="350.1" r="7.1"/><circle cx="543.8" cy="350.1" r="7.1"/><circle cx="524" cy="350.1" r="7.1"/><circle cx="504.1" cy="350.1" r="7.1"/><circle cx="484.2" cy="350.1" r="7.1"/><circle cx="464.3" cy="350.1" r="7.1"/><circle cx="444.5" cy="350.1" r="7.1"/><circle cx="424.6" cy="350.1" r="7.1"/><circle cx="404.7" cy="350.1" r="7.1"/><circle cx="384.8" cy="350.1" r="7.1"/><circle cx="364.9" cy="350.1" r="7.1"/><circle cx="345.1" cy="350.1" r="7.1"/><circle cx="325.2" cy="350.1" r="7.1"/><circle cx="305.3" cy="350.1" r="7.1"/><circle cx="285.4" cy="350.1" r="7.1"/><circle cx="265.6" cy="350.1" r="7.1"/><circle cx="245.7" cy="350.1" r="7.1"/><circle cx="225.8" cy="350.1" r="7.1"/><circle cx="205.9" cy="350.1" r="7.1"/><circle cx="186" cy="350.1" r="7.1"/><circle cx="166.2" cy="350.1" r="7.1"/><circle cx="146.3" cy="350.1" r="7.1"/><circle cx="126.4" cy="350.1" r="7.1"/><circle cx="106.5" cy="350.1" r="7.1"/><circle cx="86.7" cy="350.1" r="7.1"/><circle cx="66.8" cy="350.1" r="7.1"/><circle cx="46.9" cy="350.1" r="7.1"/><circle cx="27" cy="350.1" r="7.1"/><circle cx="7.1" cy="350.1" r="7.1"/><circle cx="702.9" cy="350.1" r="7.1"/><circle cx="1001" cy="350.1" r="7.1"/><circle cx="981.2" cy="350.1" r="7.1"/><circle cx="961.3" cy="350.1" r="7.1"/><circle cx="941.4" cy="350.1" r="7.1"/><circle cx="921.5" cy="350.1" r="7.1"/><circle cx="901.7" cy="350.1" r="7.1"/><circle cx="881.8" cy="350.1" r="7.1"/><circle cx="861.9" cy="350.1" r="7.1"/><circle cx="842" cy="350.1" r="7.1"/><circle cx="822.1" cy="350.1" r="7.1"/><circle cx="802.3" cy="350.1" r="7.1"/><circle cx="782.4" cy="350.1" r="7.1"/><circle cx="762.5" cy="350.1" r="7.1"/><circle cx="742.6" cy="350.1" r="7.1"/><circle cx="722.8" cy="350.1" r="7.1"/><circle cx="1020.9" cy="350.1" r="7.1"/><g><circle cx="683" cy="587.9" r="7.1"/><circle cx="663.1" cy="587.9" r="7.1"/><circle cx="643.2" cy="587.9" r="7.1"/><circle cx="623.4" cy="587.9" r="7.1"/><circle cx="603.5" cy="587.9" r="7.1"/><circle cx="583.6" cy="587.9" r="7.1"/><circle cx="563.7" cy="587.9" r="7.1"/><circle cx="543.8" cy="587.9" r="7.1"/><circle cx="524" cy="587.9" r="7.1"/><circle cx="504.1" cy="587.9" r="7.1"/><circle cx="484.2" cy="587.9" r="7.1"/><circle cx="464.3" cy="587.9" r="7.1"/><circle cx="444.5" cy="587.9" r="7.1"/><circle cx="424.6" cy="587.9" r="7.1"/><circle cx="404.7" cy="587.9" r="7.1"/><circle cx="384.8" cy="587.9" r="7.1"/><circle cx="364.9" cy="587.9" r="7.1"/><circle cx="345.1" cy="587.9" r="7.1"/><circle cx="325.2" cy="587.9" r="7.1"/><circle cx="305.3" cy="587.9" r="7.1"/><circle cx="285.4" cy="587.9" r="7.1"/><circle cx="265.6" cy="587.9" r="7.1"/><circle cx="245.7" cy="587.9" r="7.1"/><circle cx="225.8" cy="587.9" r="7.1"/><circle cx="205.9" cy="587.9" r="7.1"/><circle cx="186" cy="587.9" r="7.1"/><circle cx="166.2" cy="587.9" r="7.1"/><circle cx="146.3" cy="587.9" r="7.1"/><circle cx="126.4" cy="587.9" r="7.1"/><circle cx="106.5" cy="587.9" r="7.1"/><circle cx="86.7" cy="587.9" r="7.1"/><circle cx="66.8" cy="587.9" r="7.1"/><circle cx="46.9" cy="587.9" r="7.1"/><circle cx="27" cy="587.9" r="7.1"/><circle cx="7.1" cy="587.9" r="7.1"/><circle cx="702.9" cy="587.9" r="7.1"/><circle cx="1001" cy="587.9" r="7.1"/><circle cx="981.2" cy="587.9" r="7.1"/><circle cx="961.3" cy="587.9" r="7.1"/><circle cx="941.4" cy="587.9" r="7.1"/><circle cx="921.5" cy="587.9" r="7.1"/><circle cx="901.7" cy="587.9" r="7.1"/><circle cx="881.8" cy="587.9" r="7.1"/><circle cx="861.9" cy="587.9" r="7.1"/><circle cx="842" cy="587.9" r="7.1"/><circle cx="822.1" cy="587.9" r="7.1"/><circle cx="802.3" cy="587.9" r="7.1"/><circle cx="782.4" cy="587.9" r="7.1"/><circle cx="762.5" cy="587.9" r="7.1"/><circle cx="742.6" cy="587.9" r="7.1"/><circle cx="722.8" cy="587.9" r="7.1"/><circle cx="1020.9" cy="587.9" r="7.1"/></g><g><path d="M1.3 679.1v-11.8h3.2c1.2 0 2.2-.3 2.9-1 .8-.7 1.4-1.8 1.8-3.4.4-1.6.8-3.7.9-6.4s.3-6 .3-10v-2.2h27.9v23h5.3v11.8h-4V672H5.2v7.1H1.3zM15.7 649c-.1 4.3-.3 8-.7 11s-1.1 5.4-2.1 7.3H32V649H15.7zm38.5 5.3h20.4v4H54.2v9H80v4.8H47.9v-27.8H80v4.8H54.2v5.2zm42.2-5.3c-.1 4-.3 7.5-.6 10.4-.4 2.9-.9 5.3-1.8 7.2-.8 1.9-2 3.3-3.4 4.2s-3.2 1.3-5.4 1.3h-1.9v-4.8h1.6c1.2 0 2.3-.3 3.1-1 .8-.6 1.5-1.7 1.9-3.3.5-1.6.8-3.7 1-6.4s.3-6 .3-10.1v-2.2h28v27.8h-6.4v-23l-16.4-.1zm55.6-4.7c4.5 0 6.8 2 6.8 6v21.8h-6.3v-9.4h-21.3v9.4h-6.3v-21.8c0-4 2.2-6 6.7-6H152zm-20.8 14.4h21.3v-6.9c0-1.8-1-2.7-2.9-2.7h-15.5c-1.9 0-2.9.9-2.9 2.7v6.9zm39.6-14.4v22.6l20-21.3c.4-.4.8-.8 1.3-1s1-.3 1.7-.3h2.5c2.3 0 3.5 1.1 3.5 3.3v24.5h-6.3v-22.8l-20 21.4c-.4.4-.8.8-1.3 1s-1 .3-1.7.3H168c-2.3 0-3.4-1.1-3.4-3.3v-24.4h6.2zm11.3-1.1c-6 0-9-2.4-9-7.3h3.5c0 1.7.4 3 1.3 3.9s2.3 1.3 4.2 1.3c1.9 0 3.3-.4 4.2-1.3.9-.9 1.3-2.2 1.3-3.9h3.5c.1 4.8-3 7.3-9 7.3zm43.3 5.8v23h-6.3v-27.7h35.3v27.8H248v-23l-22.6-.1zm34.7-4.7h26.2c5 0 7.5 2.3 7.5 6.8v4.9c0 4.5-2.5 6.8-7.5 6.8h-19.9v9.3h-6.3v-27.8zm27.5 7.8c0-2-1.1-3-3.2-3h-17.9v9.1h17.9c2.2 0 3.2-1 3.2-3v-3.1zm18.4 20c-5 0-7.5-2.3-7.5-6.8V651c0-4.5 2.5-6.8 7.5-6.8h18.9c5 0 7.5 2.3 7.5 6.8v14.3c0 4.5-2.5 6.8-7.5 6.8H306zm2.1-23.1c-2.2 0-3.2 1-3.2 3v12.3c0 2 1.1 3 3.2 3h14.7c2.2 0 3.2-1 3.2-3v-12.2c0-2-1.1-3-3.2-3l-14.7-.1zm52.5 23.1h-6.2v-4.3h-9.9c-5 0-7.5-2.3-7.5-6.8v-6.2c0-4.5 2.5-6.8 7.5-6.8h9.9v-3.7h6.2v3.8h10c5 0 7.4 2.3 7.4 6.8v6.2c0 4.5-2.5 6.8-7.4 6.8h-10v4.2zm-17.4-11.8c0 2.1 1.1 3.1 3.2 3.1h8v-10.9h-8c-2.1 0-3.2 1-3.2 3.1v4.7zm28.6-4.7c0-2.1-1.1-3.1-3.2-3.1h-8v10.9h8c2.2 0 3.2-1 3.2-3.1v-4.7zm17.4-11.3v22.6l20-21.3c.4-.4.8-.8 1.3-1s1-.3 1.7-.3h2.5c2.3 0 3.5 1.1 3.5 3.3v24.5h-6.3v-22.8l-20 21.4c-.4.4-.8.8-1.3 1s-1 .3-1.7.3h-2.5c-2.3 0-3.4-1.1-3.4-3.3v-24.4h6.2zm47.4 27.8v-23h-14.2v-4.8h34.8v4.8h-14.3v23h-6.3z"/></g><g><path d="M597.7 679.1v-11.8h3.2c1.2 0 2.2-.3 2.9-1 .8-.7 1.4-1.8 1.8-3.4s.8-3.7.9-6.4c.2-2.7.3-6 .3-10v-2.2h27.9v23h5.3v11.8h-4V672h-34.4v7.1h-3.9zM612 649c-.1 4.3-.3 8-.7 11s-1.1 5.4-2.1 7.3h19.1V649H612zm38.6 5.3H671v4h-20.4v9h25.8v4.8h-32.2v-27.8h32.1v4.8h-25.8v5.2h.1zm42.2-5.3c-.1 4-.3 7.5-.6 10.4-.4 2.9-1 5.3-1.8 7.2s-2 3.3-3.4 4.2-3.2 1.3-5.4 1.3h-1.9v-4.8h1.6c1.2 0 2.3-.3 3.1-1 .8-.6 1.5-1.7 1.9-3.3.5-1.6.8-3.7 1-6.4s.3-6 .3-10.1v-2.2h27.9v27.8h-6.4v-23l-16.3-.1zm55.6-4.7c4.5 0 6.8 2 6.8 6v21.8h-6.3v-9.4h-21.3v9.4h-6.4v-21.8c0-4 2.2-6 6.7-6h20.5zm-20.9 14.4h21.3v-6.9c0-1.8-1-2.7-2.9-2.7h-15.5c-1.9 0-2.9.9-2.9 2.7v6.9zm39.7-14.4v22.6l20-21.3c.4-.4.8-.8 1.3-1s1-.3 1.7-.3h2.5c2.3 0 3.5 1.1 3.5 3.3v24.5h-6.3v-22.8l-20 21.4c-.4.4-.8.8-1.3 1s-1 .3-1.7.3h-2.5c-2.3 0-3.4-1.1-3.4-3.3v-24.4h6.2zm11.2-1.1c-6 0-9-2.4-9-7.3h3.5c0 1.7.5 3 1.3 3.9.9.9 2.3 1.3 4.2 1.3s3.3-.4 4.2-1.3 1.3-2.2 1.3-3.9h3.5c.1 4.8-2.9 7.3-9 7.3zm44.3 28.9c-5 0-7.5-2.3-7.5-6.8V651c0-4.5 2.5-6.8 7.5-6.8h18.9c5 0 7.5 2.3 7.5 6.8v14.3c0 4.5-2.5 6.8-7.5 6.8h-18.9zm2.1-23.1c-2.2 0-3.2 1-3.2 3v12.3c0 2 1.1 3 3.2 3h14.7c2.2 0 3.2-1 3.2-3v-12.2c0-2-1.1-3-3.2-3l-14.7-.1zm29.8-4.7h29v4.8h-22.7v5.2h19.9c5 0 7.5 2.3 7.5 6.8v4.3c0 4.5-2.5 6.8-7.5 6.8h-26.2v-27.9zm27.5 17.1c0-2-1.1-3-3.2-3H861v9h17.9c2.2 0 3.2-1 3.2-3v-3zm20.8-12.4H890v-4.7h19.2v10h19.9c5 0 7.5 2.3 7.5 6.8v4.3c0 4.5-2.5 6.8-7.5 6.8h-26.2V649zm27.5 12.4c0-2-1.1-3-3.2-3h-17.9v9h17.9c2.2 0 3.2-1 3.2-3v-3zm17.4-7.1h20.4v4h-20.4v9h25.8v4.8h-32.1v-27.8h32.1v4.8h-25.8v5.2zm39.5-8.7l13.8 21.1 13.8-21.1c.5-.9 1.4-1.3 2.7-1.3h2.7c2.3 0 3.5 1.1 3.5 3.3v24.5h-5.7v-20.8l-12.9 19.5c-.5.9-1.3 1.3-2.4 1.3h-3.3c-1 0-1.8-.4-2.4-1.3l-12.9-19.5v20.8h-5.7v-24.5c0-2.2 1.1-3.3 3.4-3.3h2.7c1.4 0 2.2.4 2.7 1.3z"/></g></symbol><symbol id="user" viewBox="0 0 16 16"><title/><path d="M7 8.735c-.6-.345-1-.992-1-1.733V4.998C6 3.898 6.895 3 8 3c1.112 0 2 .894 2 1.998v2.004a2 2 0 0 1-1 1.73V10h1.5c.9 0 1.396.406 1.485 1.217C11.111 12.343 9.72 13 8 13c-1.72 0-3.111-.657-3.985-1.783C4.105 10.406 4.599 10 5.5 10H7zM8 14A6 6 0 1 0 8 2a6 6 0 0 0 0 12zm0 2A8 8 0 1 1 8 0a8 8 0 0 1 0 16zm0 0" fill="#000" fill-rule="evenodd" stroke="none" stroke-width="1"/></symbol><symbol id="user_female" viewBox="0 0 50 50"><circle cx="25" cy="25" fill="none" r="24" stroke="#000" stroke-linecap="round" stroke-miterlimit="10" stroke-width="2"/><path fill="none" d="M0 0h50v50H0z"/><path d="M29.933 35.528a24.382 24.382 0 0 1-.06-1.226c4.345-.445 7.393-1.487 7.393-2.701-.012-.002-.011-.05-.011-.07-3.248-2.927 2.816-23.728-8.473-23.306-.709-.6-1.95-1.133-3.73-1.133-15.291 1.157-8.53 20.8-12.014 24.508l-.007.001.001.006-.001.002.002.001c.014 1.189 2.959 2.212 7.178 2.668-.012.29-.037.649-.092 1.25-1.282 3.447-7.958 3.663-11.659 7.092 2.023 1.766 9.072 6.508 16.634 6.508s13.842-3.589 16.346-6.608c-3.709-3.332-10.238-3.579-11.507-6.992z"/></symbol><symbol id="user_male" viewBox="0 0 50 50"><circle cx="25" cy="25" fill="none" r="24" stroke="#000" stroke-linecap="round" stroke-miterlimit="10" stroke-width="2"/><path fill="none" d="M0 0h50v50H0z"/><path d="M29.933 35.528c-.146-1.612-.09-2.737-.09-4.21.73-.383 2.038-2.825 2.259-4.888.574-.047 1.479-.607 1.744-2.818.143-1.187-.425-1.855-.771-2.065.934-2.809 2.874-11.499-3.588-12.397-.665-1.168-2.368-1.759-4.581-1.759-8.854.163-9.922 6.686-7.981 14.156-.345.21-.913.878-.771 2.065.266 2.211 1.17 2.771 1.744 2.818.22 2.062 1.58 4.505 2.312 4.888 0 1.473.055 2.598-.091 4.21-1.261 3.39-7.737 3.655-11.473 6.924 3.906 3.933 10.236 6.746 16.916 6.746s14.532-5.274 15.839-6.713c-3.713-3.299-10.204-3.555-11.468-6.957z"/></symbol><symbol id="world_cup" viewBox="0 0 339.6 904.04"><path d="M61.61 0c19.22 22.73 36.81 43.59 46.86 66-168.5 262 10 583 10 583S-104.74 337.24 61.61 0zm122.86 137c66 256-17.89 512-17.89 512S302.76 374.88 286.3 280.8C278.72 237.45 184.47 137 184.47 137zM135 671.81S91.14 744 3.47 808v21.33l174.85-98.28z"/><rect width="21" height="163.5" x="196.47" y="740.54" rx="10.5" ry="10.5"/><path d="M327.82 758.39l-167.98-86.58 31.74 51.85 148.02 55.86-11.78-21.13"/><rect width="18.26" height="134" x="264.88" y="770.04" rx="9.13" ry="9.13"/><rect width="21.33" height="149.33" x="231.01" y="754.71" rx="10.67" ry="10.67"/><rect width="16.67" height="125.33" x="295.14" y="778.71" rx="8.33" ry="8.33"/><rect width="16.67" height="108.67" x="320.81" y="795.37" rx="8.33" ry="8.33"/></symbol></svg>