<svg xmlns="http://www.w3.org/2000/svg" viewBox="0 0 339.6 904.04"><path d="M61.61 0c19.22 22.73 36.81 43.59 46.86 66-168.5 262 10 583 10 583S-104.74 337.24 61.61 0zM184.47 137c66 256-17.89 512-17.89 512S302.76 374.88 286.3 280.8C278.72 237.45 184.47 137 184.47 137zM135 671.81S91.14 744 3.47 808v21.33l174.85-98.28z"/><rect width="21" height="163.5" x="196.47" y="740.54" rx="10.5" ry="10.5"/><path d="M327.82 758.39l-167.98-86.58 31.74 51.85 148.02 55.86-11.78-21.13"/><rect width="18.26" height="134" x="264.88" y="770.04" rx="9.13" ry="9.13"/><rect width="21.33" height="149.33" x="231.01" y="754.71" rx="10.67" ry="10.67"/><rect width="16.67" height="125.33" x="295.14" y="778.71" rx="8.33" ry="8.33"/><rect width="16.67" height="108.67" x="320.81" y="795.37" rx="8.33" ry="8.33"/></svg>